<?xml version="1.0" encoding="UTF-8"?>
<svg version="1.1" xmlns="http://www.w3.org/2000/svg" width="32" height="32">
<path d="M0 0 C4.8846525 2.26787438 7.73212562 5.1153475 10 10 C10.75381535 15.5997712 10.77303575 20.33499991 8.375 25.5 C3.80134327 30.3143755 0.6912538 32.25156236 -6 32.5 C-12.46907717 32.26781777 -15.6912302 30.43609166 -20.125 25.7578125 C-23.41749364 20.91510311 -22.69564379 15.63613434 -22 10 C-17.59387836 0.34042564 -9.81466679 -1.32120515 0 0 Z " fill="#FF0606" transform="translate(22,0)"/>
<path d="M0 0 C1 2 1 2 0.0625 5.125 C-0.288125 6.07375 -0.63875 7.0225 -1 8 C0.051875 7.54625 1.10375 7.0925 2.1875 6.625 C5.10825453 5.37239999 8.04294668 4.16489979 11 3 C11 3.99 11 4.98 11 6 C12.258125 5.690625 13.51625 5.38125 14.8125 5.0625 C15.87404297 4.80146484 15.87404297 4.80146484 16.95703125 4.53515625 C18.65683202 4.08989295 20.33301954 3.55566015 22 3 C21.61104749 8.44533513 19.7851047 11.12686961 16 15 C11.14362942 18.09712137 5.54443024 17.60862554 0 17 C-4.01236373 15.02901431 -6.69250253 12.84582912 -9 9 C-9 8.34 -9 7.68 -9 7 C-7.28515625 5.52734375 -7.28515625 5.52734375 -5.0625 3.9375 C-2.41985962 2.10094469 -2.41985962 2.10094469 0 0 Z " fill="#FF0606" transform="translate(10,15)"/>
<path d="M0 0 C-0.33 2.31 -0.66 4.62 -1 7 C-0.071875 6.175 0.85625 5.35 1.8125 4.5 C4.625 2 4.625 2 8 2 C8 3.98 8 5.96 8 8 C8.78375 7.505 9.5675 7.01 10.375 6.5 C13 5 13 5 15 5 C15 6.32 15 7.64 15 9 C11.38854512 11.97413931 8.5894956 12.32019737 4 12 C4 11.01 4 10.02 4 9 C3.46890625 9.3609375 2.9378125 9.721875 2.390625 10.09375 C1.68421875 10.5578125 0.9778125 11.021875 0.25 11.5 C-0.44609375 11.9640625 -1.1421875 12.428125 -1.859375 12.90625 C-4 14 -4 14 -8 14 C-7.67 11.69 -7.34 9.38 -7 7 C-7.47050781 7.42152344 -7.94101563 7.84304687 -8.42578125 8.27734375 C-9.04839844 8.82519531 -9.67101562 9.37304688 -10.3125 9.9375 C-10.92738281 10.48277344 -11.54226562 11.02804688 -12.17578125 11.58984375 C-14 13 -14 13 -17 14 C-17.05391993 12.20866022 -17.09275571 10.41686101 -17.125 8.625 C-17.14820312 7.62726562 -17.17140625 6.62953125 -17.1953125 5.6015625 C-17 3 -17 3 -15 1 C-13.68 1 -12.36 1 -11 1 C-11 2.65 -11 4.3 -11 6 C-10.54109375 5.566875 -10.0821875 5.13375 -9.609375 4.6875 C-8.68898438 3.8521875 -8.68898438 3.8521875 -7.75 3 C-7.14671875 2.443125 -6.5434375 1.88625 -5.921875 1.3125 C-4 0 -4 0 0 0 Z " fill="#FFF4F4" transform="translate(17,9)"/>
</svg>
