<?xml version="1.0" encoding="UTF-8" standalone="no"?>
<!-- Created with Inkscape (http://www.inkscape.org/) -->

<svg
   width="125mm"
   height="20mm"
   viewBox="0 0 125 20"
   version="1.1"
   id="svg1"
   sodipodi:docname="logo-229x20.svg"
   inkscape:version="1.3.2 (091e20e, 2023-11-25, custom)"
   xmlns:inkscape="http://www.inkscape.org/namespaces/inkscape"
   xmlns:sodipodi="http://sodipodi.sourceforge.net/DTD/sodipodi-0.dtd"
   xmlns="http://www.w3.org/2000/svg"
   xmlns:svg="http://www.w3.org/2000/svg">
  <sodipodi:namedview
     id="namedview1"
     pagecolor="#ffffff"
     bordercolor="#000000"
     borderopacity="0.25"
     inkscape:showpageshadow="2"
     inkscape:pageopacity="0.0"
     inkscape:pagecheckerboard="0"
     inkscape:deskcolor="#d1d1d1"
     inkscape:document-units="mm"
     showgrid="false"
     inkscape:zoom="0.92237159"
     inkscape:cx="-101.9112"
     inkscape:cy="-26.019882"
     inkscape:window-width="1704"
     inkscape:window-height="1360"
     inkscape:window-x="1700"
     inkscape:window-y="0"
     inkscape:window-maximized="0"
     inkscape:current-layer="svg1" />
  <defs
     id="defs1" />
  <path
     style="display:inline;fill:#ff0303;stroke:none;stroke-width:0.41307"
     d="M 1.9442995,7.4287269 C 2.4879243,7.0506716 5.3617187,5.2213406 5.4456941,7.1012761 5.4819297,7.9117213 4.647742,8.8158321 4.4580298,9.6145846 5.1976249,9.734247 5.8004276,8.9738162 6.3159696,8.5161678 7.3971326,7.5564814 8.5645016,6.4118423 9.9226173,5.8578319 10.704198,5.5390163 12.164787,5.5327178 12.292286,6.6637884 12.421221,7.8081742 11.437917,8.9318925 11.671281,10.051734 12.942555,9.6749845 13.814644,8.3979364 14.840735,7.6123306 15.221973,7.3204404 15.854503,6.8501938 16.37074,6.983635 c 1.338839,0.3460967 0.550789,1.6678915 0.555233,2.5216511 0.0021,0.5267709 0.252768,1.1036199 0.865727,1.0632339 0.540023,-0.0356 1.098352,-0.444187 1.530005,-0.7384796 0.508273,-0.3465388 1.592259,-0.9212584 1.773038,-1.54553 C 21.211886,7.8797399 20.937159,7.2662554 20.814166,6.8822789 20.384686,5.5421345 19.66818,4.3332617 18.743612,3.2757377 13.772361,-2.4104595 3.6521555,0.04647155 1.9442995,7.4287269 m 0.546448,6.3389311 c 0.2483023,1.39294 1.4550042,2.776735 2.5137301,3.64872 2.825928,2.327497 6.7372114,3.045306 10.1641324,1.657087 3.706632,-1.501529 5.426855,-4.632828 6.120335,-8.365985 -1.570582,0.98223 -5.278206,4.506208 -6.839749,1.639387 -0.259256,-0.475956 -0.250577,-1.015135 -0.373504,-1.530088 -1.706973,0.950333 -3.167539,2.332822 -4.9181394,3.205648 -0.639841,0.319003 -1.739836,0.414354 -2.0004,-0.473849 -0.29149,-0.993733 0.952334,-3.045916 1.235355,-4.0432919 -0.786322,0.1868689 -1.373557,0.8736679 -1.96724,1.3900109 -1.2211961,1.062117 -2.4210106,2.242065 -3.9345201,2.872361 z"
     id="path1" />
  <text
     xml:space="preserve"
     style="font-style:normal;font-variant:normal;font-weight:normal;font-stretch:normal;font-size:20.6935px;font-family:'FONTSPRING DEMO - 800 Matahari ExtraBold';-inkscape-font-specification:'FONTSPRING DEMO - 800 Matahari ExtraBold, Normal';font-variant-ligatures:normal;font-variant-caps:normal;font-variant-numeric:normal;font-variant-east-asian:normal;fill:#000000;stroke-width:0.305152"
     x="25.565735"
     y="17.826441"
     id="text1"><tspan
       sodipodi:role="line"
       id="tspan1"
       style="font-style:normal;font-variant:normal;font-weight:800;font-stretch:normal;font-size:20.6935px;font-family:'BDO Grotesk';-inkscape-font-specification:'BDO Grotesk, Ultra-Bold';font-variant-ligatures:normal;font-variant-caps:normal;font-variant-numeric:normal;font-variant-east-asian:normal;stroke-width:0.305152"
       x="25.565735"
       y="17.826441">MonoLab</tspan></text>
</svg>
