<?xml version="1.0" encoding="UTF-8"?>
<svg version="1.1" xmlns="http://www.w3.org/2000/svg" width="180" height="180">
<path d="M0 0 C2.1507987 -0.00961036 4.30060107 -0.04061049 6.45117188 -0.07226562 C17.97243814 -0.16259909 28.22396278 1.70158457 38.74804688 6.49023438 C39.42577148 6.79541992 40.10349609 7.10060547 40.80175781 7.41503906 C62.35363264 17.35812783 77.06862172 33.8324212 86.68554688 55.24023438 C87.33716797 56.69042969 87.33716797 56.69042969 88.00195312 58.16992188 C92.16814211 68.03963896 93.03437947 77.31002741 93.0012207 87.93188477 C92.99806825 90.03845406 93.02156188 92.14360407 93.046875 94.25 C93.10203517 105.66136508 91.17675447 115.88291472 86.43554688 126.30273438 C86.13036133 126.98045898 85.82517578 127.65818359 85.51074219 128.35644531 C75.56765342 149.90832014 59.09336005 164.62330922 37.68554688 174.24023438 C36.23535156 174.89185547 36.23535156 174.89185547 34.75585938 175.55664062 C24.88614229 179.72282961 15.61575384 180.58906697 4.99389648 180.5559082 C2.88732719 180.55275575 0.78217718 180.57624938 -1.32421875 180.6015625 C-12.73558383 180.65672267 -22.95713347 178.73144197 -33.37695312 173.99023438 C-34.05467773 173.68504883 -34.73240234 173.37986328 -35.43066406 173.06542969 C-56.39301234 163.39432259 -70.56655296 147.30102895 -81.31445312 127.24023438 C-83.29445313 127.24023438 -85.27445312 127.24023438 -87.31445312 127.24023438 C-87.43111504 119.88540169 -87.51955212 112.53077357 -87.57351398 105.1751976 C-87.59943405 101.7583893 -87.63450035 98.34222121 -87.69165039 94.92578125 C-87.75716697 90.98380623 -87.780779 87.04207604 -87.80273438 83.09960938 C-87.8285408 81.8928656 -87.85434723 80.68612183 -87.88093567 79.44281006 C-87.883681 71.00811936 -86.04295289 64.76878438 -82.31445312 57.24023438 C-81.67081983 55.82493193 -81.0294892 54.40857464 -80.39257812 52.99023438 C-69.41805118 30.11354696 -52.27757696 13.5063454 -28.38916016 4.515625 C-24.73977785 3.26484804 -21.04805555 2.20638588 -17.31445312 1.24023438 C-16.74307617 1.06516357 -16.17169922 0.89009277 -15.58300781 0.7097168 C-10.50471545 -0.34124707 -5.17340862 0.0139445 0 0 Z " fill="#FF0101" transform="translate(87.314453125,-0.240234375)"/>
<path d="M0 0 C-0.57571802 7.70922405 -3.17951744 14.04224404 -6.1171875 21.13476562 C-8.40705261 26.85524982 -9.73428181 31.82205209 -10 38 C-8.93190172 40.5404226 -8.93190172 40.5404226 -7 42 C-2.01873295 43.66042235 2.55677287 44.04826836 7.47412109 41.93847656 C10.11930767 40.42856098 12.65338817 38.8146422 15.1875 37.125 C16.10587646 36.53436768 17.02425293 35.94373535 17.97045898 35.33520508 C24.38789105 31.17289585 30.65983264 26.81716081 36.83203125 22.30078125 C40.10058351 19.92694983 43.4029522 17.63673289 46.75 15.375 C47.71421875 14.72273438 48.6784375 14.07046875 49.671875 13.3984375 C52 12 52 12 54 12 C54.09796875 12.86882812 54.1959375 13.73765625 54.296875 14.6328125 C55.34554616 22.71481262 56.42517255 27.76563231 62.625 33.375 C69.36690065 36.62110031 76.32614928 35.42829609 83.2421875 33.09765625 C94.11862659 28.76864862 102.84763747 23.23266463 112 16 C114.31530356 14.30577957 116.65461045 12.65243354 119 11 C119.98436734 30.68734686 109.67111266 50.79878118 96.75 65.125 C87.09001307 75.42898606 76.79880397 82.25045711 64 88 C62.54980469 88.65162109 62.54980469 88.65162109 61.0703125 89.31640625 C51.20059541 93.48259524 41.93020696 94.34883259 31.30834961 94.31567383 C29.20178031 94.31252137 27.0966303 94.336015 24.99023438 94.36132812 C13.5788693 94.4164883 3.35731966 92.49120759 -7.0625 87.75 C-7.74022461 87.44481445 -8.41794922 87.13962891 -9.11621094 86.82519531 C-28.81643019 77.73637913 -45.18342681 61.95777341 -54 42 C-54 41.01 -54 40.02 -54 39 C-53.071875 38.649375 -52.14375 38.29875 -51.1875 37.9375 C-37.3769227 31.90054106 -26.63149851 21.12157096 -15.625 11.125 C-3.32786506 0 -3.32786506 0 0 0 Z " fill="#FF0101" transform="translate(61,86)"/>
<path d="M0 0 C1.8062159 1.18669257 3.27905453 2.59936703 4.8046875 4.125 C5.15845799 10.69869891 4.31336442 15.99864382 2.3671875 22.25 C0.76040185 27.55194257 -0.55934738 32.61330226 -1.1953125 38.125 C3.8609773 36.80693918 6.63584152 34.80467406 10.3671875 31.1875 C11.41214504 30.19589212 12.45909022 29.20637545 13.5078125 28.21875 C14.04599609 27.70957031 14.58417969 27.20039062 15.13867188 26.67578125 C17.90095467 24.10455905 20.74762476 21.63773915 23.6171875 19.1875 C24.131604 18.73963135 24.64602051 18.2917627 25.17602539 17.83032227 C29.55196879 14.10947282 34.13143441 10.61600567 39.8671875 9.5625 C44.04689964 10.36287041 45.76965409 12.16054876 48.8046875 15.125 C50.32296422 18.16155344 49.97273109 20.76412824 49.8046875 24.125 C49.4746875 25.094375 49.1446875 26.06375 48.8046875 27.0625 C47.20097784 31.97386084 47.08074037 36.19447431 48.9296875 41.125 C50.66146936 43.3987113 50.66146936 43.3987113 53.50390625 43.46484375 C63.04817186 42.48217972 72.36805618 34.22930924 79.40234375 28.10546875 C81.75988748 26.1619327 84.14843031 24.62595103 86.8046875 23.125 C88.84708778 41.39058455 88.84708778 41.39058455 85.70605469 47.13378906 C82.39123109 51.02750077 78.16229327 53.54645584 73.8046875 56.125 C72.83917969 56.79402344 71.87367188 57.46304688 70.87890625 58.15234375 C60.07857286 65.54533607 47.23737984 71.95058403 33.8046875 70.125 C28.59165243 67.51848247 25.42193534 63.95518371 22.5546875 58.9375 C21.79761607 56.09848213 21.7293945 53.87390446 21.7578125 50.94921875 C21.76458008 50.04647217 21.77134766 49.14372559 21.77832031 48.21362305 C21.79137207 47.17975464 21.79137207 47.17975464 21.8046875 46.125 C21.1562085 46.55731934 20.50772949 46.98963867 19.83959961 47.43505859 C18.92960205 48.04172363 18.01960449 48.64838867 17.08203125 49.2734375 C16.07543457 49.94455566 15.06883789 50.61567383 14.03173828 51.30712891 C11.82848782 52.77585354 9.62503541 54.24427527 7.42138672 55.71240234 C2.02717292 59.30669147 -3.36316181 62.90635028 -8.74145508 66.52441406 C-10.5127891 67.71145141 -12.28997966 68.88901207 -14.0703125 70.0625 C-16.06201976 71.37702679 -18.04259853 72.70868593 -20.0078125 74.0625 C-25.4031369 77.6155185 -29.69432395 79.43547595 -36.1953125 78.125 C-39.82998329 76.50099816 -40.96939946 75.46386956 -43.1953125 72.125 C-43.01101722 64.41531399 -40.5223986 57.98210191 -37.6953125 50.875 C-36.86898138 48.76696024 -36.04593778 46.65762815 -35.2265625 44.546875 C-34.86111328 43.62487305 -34.49566406 42.70287109 -34.11914062 41.75292969 C-33.22742996 39.2163616 -32.65207278 36.7711008 -32.1953125 34.125 C-37.24924045 37.76382813 -42.03844131 41.63087697 -46.7578125 45.6875 C-47.35408447 46.19925781 -47.95035645 46.71101563 -48.56469727 47.23828125 C-51.72985994 49.96596203 -54.86770731 52.72001176 -57.9765625 55.51171875 C-80.19820641 75.35155096 -80.19820641 75.35155096 -93.1953125 75.125 C-93.45131663 67.71903439 -93.6461839 60.31403648 -93.76524639 52.90452671 C-93.8224257 49.46282702 -93.89980933 46.02417408 -94.02514648 42.58422852 C-94.16865318 38.62033931 -94.22110007 34.65763905 -94.26953125 30.69140625 C-94.32630539 29.46917862 -94.38307953 28.24695099 -94.4415741 26.98768616 C-94.44536201 21.69670322 -94.34341072 18.44691435 -90.78970337 14.35519409 C-82.15619269 7.19827922 -75.56228207 4.81027036 -64.40234375 4.62890625 C-61.1953125 5.125 -61.1953125 5.125 -58.70703125 6.77734375 C-57.1953125 9.125 -57.1953125 9.125 -57.19140625 11.796875 C-58.51348755 16.17980601 -60.32329122 20.23198379 -62.2578125 24.375 C-63.00196071 25.98286894 -63.74300719 27.59217822 -64.48046875 29.203125 C-64.80926025 29.90856445 -65.13805176 30.61400391 -65.47680664 31.34082031 C-66.31983125 33.11363237 -66.31983125 33.11363237 -66.1953125 35.125 C-62.29693695 34.53707793 -60.11609821 32.68748464 -57.1328125 30.1875 C-56.15699219 29.37152344 -55.18117187 28.55554688 -54.17578125 27.71484375 C-51.37511164 25.28123438 -48.65626354 22.78265232 -45.9453125 20.25 C-39.94999419 14.74427072 -33.53913215 9.91883656 -26.85498047 5.28027344 C-25.46609832 4.31349051 -24.09585268 3.32000724 -22.73046875 2.3203125 C-16.23983474 -1.95842948 -7.29356398 -2.90704329 0 0 Z " fill="#FFFCFC" transform="translate(93.1953125,51.875)"/>
</svg>
